<?xml version="1.0" encoding="utf-8"?>
<!-- Generator: Adobe Illustrator 15.0.0, SVG Export Plug-In . SVG Version: 6.00 Build 0)  -->
<!DOCTYPE svg PUBLIC "-//W3C//DTD SVG 1.1 Basic//EN" "http://www.w3.org/Graphics/SVG/1.1/DTD/svg11-basic.dtd">
<svg version="1.1" baseProfile="basic" id="Layer_1"
	 xmlns="http://www.w3.org/2000/svg" xmlns:xlink="http://www.w3.org/1999/xlink" x="0px" y="0px" width="208px" height="38px"
	 viewBox="0 0 208 38" xml:space="preserve">
<g>
	<path fill="#FFFFFF" d="M49.496,22.721l-7.955-10.905v10.905h-2.674V7.471h2.743l7.796,10.563V7.471h2.674v15.25H49.496z"/>
	<path fill="#FFFFFF" d="M55.782,22.721V7.471h2.675v15.25H55.782z"/>
	<path fill="#FFFFFF" d="M61.496,15.108c0-4.801,3.566-7.888,8.001-7.888c2.974,0,4.917,1.417,6.128,3.154l-2.171,1.258
		c-0.823-1.144-2.263-2.035-3.956-2.035c-3.016,0-5.257,2.286-5.257,5.51c0,3.177,2.241,5.509,5.257,5.509
		c1.555,0,2.927-0.709,3.613-1.374V16.89h-4.572v-2.355h7.225v5.694c-1.486,1.666-3.634,2.787-6.265,2.787
		C65.062,23.016,61.496,19.885,61.496,15.108z"/>
	<path fill="#FFFFFF" d="M89.614,22.721v-6.674h-7.932v6.674h-2.676V7.471h2.676v6.219h7.932V7.471h2.674v15.25H89.614z"/>
	<path fill="#FFFFFF" d="M99.626,22.721V9.827h-4.618V7.471h11.912v2.355h-4.618v12.894H99.626z"/>
	<path fill="#FFFFFF" d="M126.691,22.721l-1.12-2.949h-6.995l-1.118,2.949h-3.042l5.99-15.25h3.34l5.987,15.25H126.691z
		 M122.075,10.146l-2.744,7.267h5.488L122.075,10.146z"/>
	<path fill="#FFFFFF" d="M130.369,15.108c0-4.801,3.568-7.888,8.004-7.888c2.973,0,4.915,1.417,6.129,3.154l-2.174,1.258
		c-0.824-1.144-2.264-2.035-3.955-2.035c-3.018,0-5.258,2.286-5.258,5.51c0,3.177,2.24,5.509,5.258,5.509
		c1.555,0,2.926-0.709,3.613-1.374V16.89h-4.573v-2.355h7.224v5.694c-1.484,1.666-3.637,2.787-6.264,2.787
		C133.938,23.016,130.369,19.885,130.369,15.108z"/>
	<path fill="#FFFFFF" d="M147.882,22.721V7.471h10.448v2.355h-7.774v3.932h7.616v2.354h-7.616v4.252h7.774v2.355H147.882z"/>
	<path fill="#FFFFFF" d="M172.159,22.721l-7.956-10.905v10.905h-2.675V7.471h2.744l7.794,10.563V7.471h2.678v15.25H172.159z"/>
	<path fill="#FFFFFF" d="M177.781,15.108c0-4.711,3.5-7.888,8.002-7.888c3.064,0,4.982,1.576,6.104,3.406l-2.263,1.189
		c-0.732-1.28-2.219-2.217-3.842-2.217c-3.018,0-5.258,2.286-5.258,5.51c0,3.177,2.24,5.509,5.258,5.509
		c1.623,0,3.108-0.961,3.842-2.218l2.285,1.144c-1.166,1.826-3.064,3.451-6.127,3.451C181.281,22.996,177.781,19.795,177.781,15.108
		z"/>
	<path fill="#FFFFFF" d="M198.377,22.721v-6.333l-5.92-8.916h3.065l4.183,6.516l4.185-6.516h3.063l-5.899,8.916v6.333H198.377z"/>
</g>
<g>
	<path fill="#FFFFFF" d="M26.546,5.831H12.881L0.126,0l30.67,27.564V1.957L26.546,5.831z M26.534,18.109L16.301,8.722h10.245
		L26.534,18.109z"/>
</g>
</svg>
