<svg id="Layer_1" data-name="Layer 1" xmlns="http://www.w3.org/2000/svg" viewBox="0 0 500 142.8"><defs><style>.cls-1{fill:#95bf47;}.cls-2{fill:#5e8e3e;}.cls-3{fill:#fff;}</style></defs><title>shopify_logo_whitebg</title><path class="cls-1" d="M107.4,27.2a1.27,1.27,0,0,0-1.2-1.1c-0.5,0-11.2-.8-11.2-0.8s-7.4-7.4-8.3-8.2-2.4-.6-3-0.4c-0.1,0-1.6.5-4.2,1.3C77,10.7,72.6,4.1,64.9,4.1H64.2A9.41,9.41,0,0,0,57,0C39,0,30.4,22.5,27.7,33.9c-7,2.2-12,3.7-12.6,3.9-3.9,1.2-4,1.3-4.5,5C10.2,45.6,0,124.6,0,124.6l79.5,14.9,43.1-9.3C122.6,130.1,107.5,27.9,107.4,27.2Zm-32.3-8c-2,.6-4.3,1.3-6.7,2.1V19.8A33.46,33.46,0,0,0,66.8,8.9C70.8,9.5,73.4,14,75.1,19.2ZM61.8,9.9c1.1,2.8,1.8,6.7,1.8,12.1v0.8c-4.4,1.4-9.1,2.8-13.9,4.3C52.4,16.8,57.5,11.8,61.8,9.9ZM56.5,4.8a4,4,0,0,1,2.3.8C53,8.3,46.9,15.1,44.3,28.8c-3.8,1.2-7.5,2.3-11,3.4C36.3,21.8,43.6,4.8,56.5,4.8Z"/><path class="cls-2" d="M106.2,26c-0.5,0-11.2-.8-11.2-0.8s-7.4-7.4-8.3-8.2a1.61,1.61,0,0,0-1.1-.5l-6,123,43.1-9.3s-15.1-102.3-15.2-103A1.73,1.73,0,0,0,106.2,26Z"/><path class="cls-3" d="M64.9,49.8L59.6,65.6a24.64,24.64,0,0,0-10.4-2.5c-8.4,0-8.8,5.3-8.8,6.6,0,7.2,18.8,10,18.8,26.9,0,13.3-8.4,21.9-19.8,21.9-13.7,0-20.6-8.5-20.6-8.5l3.7-12.1s7.2,6.2,13.2,6.2a5.33,5.33,0,0,0,5.6-5.4c0-9.4-15.4-9.8-15.4-25.3,0-13,9.3-25.6,28.2-25.6C61.3,47.7,64.9,49.8,64.9,49.8Z"/><path id="s" d="M172.9,79.5c-4.3-2.3-6.5-4.3-6.5-7,0-3.4,3.1-5.6,7.9-5.6a28.59,28.59,0,0,1,10.6,2.3l3.9-12s-3.6-2.8-14.2-2.8c-14.8,0-25.1,8.5-25.1,20.4,0,6.8,4.8,11.9,11.2,15.6,5.2,2.9,7,5,7,8.1s-2.6,5.8-7.4,5.8c-7.1,0-13.9-3.7-13.9-3.7l-4.2,12s6.2,4.2,16.7,4.2c15.2,0,26.2-7.5,26.2-21C185,88.4,179.5,83.3,172.9,79.5Z"/><path id="h" d="M233.5,54.2c-7.5,0-13.4,3.6-17.9,9l-0.2-.1,6.5-34H205l-16.5,86.6h16.9L211,86.1c2.2-11.2,8-18.1,13.4-18.1,3.8,0,5.3,2.6,5.3,6.3a38.08,38.08,0,0,1-.7,7.5l-6.4,33.9h16.9l6.6-35a66.88,66.88,0,0,0,1.2-11.1C247.4,59.9,242.4,54.2,233.5,54.2Z"/><path id="o" d="M285.7,54.2c-20.4,0-33.9,18.4-33.9,38.9,0,13.1,8.1,23.7,23.3,23.7,20,0,33.5-17.9,33.5-38.9C308.7,65.7,301.6,54.2,285.7,54.2Zm-8.3,49.6c-5.8,0-8.2-4.9-8.2-11.1,0-9.7,5-25.5,14.2-25.5,6,0,8,5.2,8,10.2C291.4,87.8,286.3,103.8,277.4,103.8Z"/><path id="p" d="M352,54.2c-11.4,0-17.9,10.1-17.9,10.1h-0.2l1-9.1h-15c-0.7,6.1-2.1,15.5-3.4,22.5l-11.8,62h16.9l4.7-25.1h0.4s3.5,2.2,9.9,2.2c19.9,0,32.9-20.4,32.9-41C369.5,64.4,364.4,54.2,352,54.2ZM335.8,104a10.66,10.66,0,0,1-7-2.5l2.8-15.8c2-10.6,7.5-17.6,13.4-17.6,5.2,0,6.8,4.8,6.8,9.3C351.8,88.4,345.3,104,335.8,104Z"/><path id="dot" d="M393.7,29.9a9.67,9.67,0,0,0-9.7,9.8c0,5,3.2,8.5,8,8.5h0.2a9.53,9.53,0,0,0,9.9-9.8C402.1,33.4,398.8,29.9,393.7,29.9Z"/><polygon id="i" points="370 115.6 386.9 115.6 398.4 55.5 381.4 55.5 370 115.6"/><path id="f" d="M441.5,55.4H429.7l0.6-2.8c1-5.8,4.4-10.9,10.1-10.9a17.06,17.06,0,0,1,5.4.9l3.3-13.3s-2.9-1.5-9.2-1.5a25.47,25.47,0,0,0-16.6,5.6c-5.8,4.9-8.5,12-9.8,19.2L413,55.4h-7.9l-2.5,12.8h7.9l-9,47.4h16.9l9-47.4h11.7Z"/><path id="y" d="M482.3,55.5S471.7,82.2,467,96.8h-0.2c-0.3-4.7-4.2-41.3-4.2-41.3H444.8L455,110.6a3.68,3.68,0,0,1-.4,2.8,29.67,29.67,0,0,1-9.2,10.2,39,39,0,0,1-9.6,4.8l4.7,14.4a39,39,0,0,0,16.6-9.2c7.7-7.2,14.9-18.4,22.2-33.6L500,55.5H482.3Z"/></svg>